<?xml version="1.0" encoding="utf-8"?><!DOCTYPE svg PUBLIC "-//W3C//DTD SVG 1.1//EN" "http://www.w3.org/Graphics/SVG/1.1/DTD/svg11.dtd"><svg version="1.1" baseProfile="full" xmlns="http://www.w3.org/2000/svg" xmlns:xlink="http://www.w3.org/1999/xlink" xmlns:ev="http://www.w3.org/2001/xml-events"   height="51px"   width="56px" ><path fill="rgb( 80, 80, 112 )" d="M55,26.993 C55,26.993 1,26.993 1,26.993 C0.44800000000009,26.993 0,26.545 0,25.993 C0,25.44 0.44800000000009,24.993 1,24.993 C1,24.993 55,24.993 55,24.993 C55.5519999999999,24.993 56,25.44 56,25.993 C56,26.545 55.5519999999999,26.993 55,26.993 ZM55,2.99200000000002 C55,2.99200000000002 1,2.99200000000002 1,2.99200000000002 C0.44800000000009,2.99200000000002 0,2.54399999999998 0,1.99200000000002 C0,1.44 0.44800000000009,0.99200000000002 1,0.99200000000002 C1,0.99200000000002 55,0.99200000000002 55,0.99200000000002 C55.5519999999999,0.99200000000002 56,1.44 56,1.99200000000002 C56,2.54399999999998 55.5519999999999,2.99200000000002 55,2.99200000000002 ZM1,48.9930000000001 C1,48.9930000000001 55,48.9930000000001 55,48.9930000000001 C55.5519999999999,48.9930000000001 56,49.441 56,49.9930000000001 C56,50.545 55.5519999999999,50.9930000000001 55,50.9930000000001 C55,50.9930000000001 1,50.9930000000001 1,50.9930000000001 C0.44800000000009,50.9930000000001 0,50.545 0,49.9930000000001 C0,49.441 0.44800000000009,48.9930000000001 1,48.9930000000001 Z "/></svg>